<?xml version="1.0" encoding="utf-8"?>
<!-- Generator: Adobe Illustrator 17.1.0, SVG Export Plug-In . SVG Version: 6.00 Build 0)  -->
<svg version="1.2" baseProfile="tiny" id="Layer_1" xmlns:sketch="http://www.bohemiancoding.com/sketch/ns"
	 xmlns="http://www.w3.org/2000/svg" xmlns:xlink="http://www.w3.org/1999/xlink" x="0px" y="0px" viewBox="0 0.398 273.892 50.738"
	 overflow="scroll" xml:space="preserve">
<title>bt-logo</title>
<desc>Created with Sketch.</desc>
<g id="Page-1" sketch:type="MSPage">
	<g id="Features-Landing" transform="translate(-87.000000, -44.000000)" sketch:type="MSArtboardGroup">
		<g id="Header-Block-2" transform="translate(-2.000000, 0.407080)" sketch:type="MSLayerGroup">
			
				<g id="_x31__x5F_Braintree_x5F_Logo_x5F_Master_x5F_File" transform="translate(89.000000, 44.000000)" sketch:type="MSShapeGroup">
				<path id="Fill-1" fill="#3E3C42" d="M6.154,21.228h4.379c3.381,0,5.071-1.108,5.071-3.247c0-2.101-1.806-3.246-5.34-3.246h-4.11
					V21.228L6.154,21.228z M6.154,5.568v6.035h3.841c2.881,0,4.379-1.07,4.379-3.018c0-1.986-1.536-3.018-4.417-3.018L6.154,5.568
					L6.154,5.568z M0.047,24.474v-3.246H2.62V5.568H0.047V2.321h10.294c4.725,0,7.605,2.177,7.605,5.958
					c0,2.482-1.459,4.01-3.303,4.736c2.65,0.726,4.533,2.597,4.533,5.156c0,4.048-3.15,6.302-8.297,6.302L0.047,24.474L0.047,24.474
					z"/>
				<path id="Fill-2" fill="#3E3C42" d="M37.846,12.94c-0.384-1.299-1.345-2.063-2.612-2.063c-2.958,0-5.762,2.177-5.762,6.149
					v4.202h5.685v3.246H22.48v-3.246h3.611V11.45h-2.842V8.203h6.184v2.75c1.037-1.91,3.15-3.285,5.954-3.285
					c3.15,0,5.109,1.795,5.685,4.354L37.846,12.94"/>
				<path id="Fill-3" fill="#3E3C42" d="M55.132,17.904c-1.075-0.382-2.688-0.688-4.187-0.688c-2.151,0-4.226,0.688-4.226,2.636
					c0,1.451,1.306,2.139,3.111,2.139c2.497,0,5.301-1.337,5.301-3.629L55.132,17.904L55.132,17.904z M55.132,15.002v-0.917
					c0-2.292-1.844-3.247-3.841-3.247c-1.882,0-3.496,0.764-4.802,1.948l-2.228-2.406c1.537-1.414,3.726-2.712,7.03-2.712
					c4.11,0,7.298,2.178,7.298,6.302v7.258h2.382v3.246h-5.839v-1.719c-0.883,1.414-3.265,2.254-5.608,2.254
					c-3.38,0-6.3-1.719-6.3-5.118c0-4.011,3.957-5.538,7.567-5.538C52.559,14.353,54.018,14.696,55.132,15.002L55.132,15.002z"/>
				<path id="Fill-4" fill="#3E3C42" d="M71.382-0.009h3.803v4.965h-3.803V-0.009z M81.484,21.228v3.246H64.967v-3.246h6.837V11.45
					H66.58V8.203h8.604v13.024L81.484,21.228L81.484,21.228z"/>
				<path id="Fill-5" fill="#3E3C42" d="M85.557,21.228h2.497V11.45H85.71V8.203h5.686v2.1c0.999-1.604,3.073-2.635,5.608-2.635
					c3.649,0,6.262,2.292,6.262,5.997v7.562h2.496v3.246h-8.488v-3.246h2.611v-6.646c0-2.826-1.729-3.628-3.304-3.628
					c-2.573,0-5.147,1.91-5.147,4.851v5.424h2.612v3.246h-8.489V21.228"/>
				<path id="Fill-6" fill="#3E3C42" d="M110.41,11.449h-4.264V8.203h4.264V2.321h3.381v5.882h7.951v3.246h-7.951v6.837
					c0,2.521,1.768,3.553,3.803,3.553c1.921,0,3.534-1.07,4.725-2.254l2.267,2.33c-1.498,1.604-3.803,3.094-6.991,3.094
					c-4.109,0-7.184-2.254-7.184-6.607L110.41,11.449"/>
				<path id="Fill-7" fill="#3E3C42" d="M143.023,12.94c-0.384-1.299-1.344-2.063-2.611-2.063c-2.958,0-5.762,2.177-5.762,6.149
					v4.202h5.686v3.246h-12.677v-3.246h3.61V11.45h-2.843V8.203h6.185v2.75c1.037-1.91,3.15-3.285,5.954-3.285
					c3.149,0,5.109,1.795,5.685,4.354L143.023,12.94"/>
				<path id="Fill-8" fill="#3E3C42" d="M152.129,14.658h10.063c-0.499-2.33-2.573-3.896-4.878-3.896
					C154.702,10.762,152.705,12.366,152.129,14.658L152.129,14.658z M165.765,21.991c-1.689,1.757-4.686,3.018-8.028,3.018
					c-5.492,0-9.334-3.667-9.334-8.67c0-5.004,3.727-8.671,8.912-8.671c5.147,0,8.758,3.935,8.758,9.281v0.573h-14.098
					c0.576,2.712,2.843,4.354,5.801,4.354c2.458,0,4.57-0.992,5.724-2.253L165.765,21.991L165.765,21.991z"/>
				<path id="Fill-9" fill="#3E3C42" d="M173.141,14.658h10.064c-0.499-2.33-2.573-3.896-4.878-3.896
					C175.715,10.762,173.717,12.366,173.141,14.658L173.141,14.658z M186.777,21.991c-1.689,1.757-4.686,3.018-8.027,3.018
					c-5.493,0-9.335-3.667-9.335-8.67c0-5.004,3.726-8.671,8.912-8.671c5.147,0,8.759,3.935,8.759,9.281v0.573h-14.099
					c0.577,2.712,2.843,4.354,5.801,4.354c2.458,0,4.571-0.992,5.724-2.253L186.777,21.991L186.777,21.991z"/>
			</g>
		</g>
	</g>
</g>
<g>
	<path fill="#3E3C42" d="M208.294,21.407h2.836V5.113h-2.836V2.836h9.7c1.901,0,3.319,0.089,4.834,0.502
		c4.351,1.242,7.187,4.85,7.187,9.936c0,5.057-2.739,8.576-7.187,9.877c-1.482,0.444-2.997,0.562-4.802,0.562h-9.732V21.407z
		 M217.833,21.289c1.482,0,2.707-0.118,3.867-0.532c3.062-0.976,4.963-3.667,4.963-7.482c0-3.844-1.901-6.535-4.931-7.541
		c-1.257-0.414-2.417-0.473-3.899-0.473h-3.48v16.028H217.833z"/>
	<path fill="#3E3C42" d="M241.166,8.396c4.641,0,7.058,3.134,7.058,7.008c0,0.384-0.097,1.094-0.097,1.094h-11.924
		c0.193,3.312,2.739,5.086,5.64,5.086c2.836,0,4.866-1.686,4.866-1.686l1.289,2.1c0,0-2.449,2.07-6.349,2.07
		c-5.124,0-8.637-3.4-8.637-7.836C233.013,11.471,236.525,8.396,241.166,8.396z M245.001,14.665
		c-0.097-2.632-1.837-3.992-3.899-3.992c-2.385,0-4.318,1.479-4.77,3.992H245.001z"/>
	<path fill="#3E3C42" d="M249.868,8.75h7.315v2.218h-2.095l3.448,8.724c0.258,0.65,0.354,1.39,0.354,1.39h0.097
		c0,0,0.097-0.739,0.354-1.39l3.48-8.724h-2.095V8.75h7.283v2.218h-2.03l-5.285,12.745h-3.513l-5.253-12.745h-2.063V8.75z"/>
</g>
<g>
	<path fill="#3E3C42" d="M205.316,24.881v3.119H190.28v-3.119H205.316z"/>
</g>
<circle fill="#3E3C42" cx="271.64" cy="21.238" r="2.251"/>
<g>
	<g>
		<path fill-rule="evenodd" fill="#187FAD" d="M72.987,35.142c-1.785,0-3.196,0.474-4.275,0.689l-0.333,2.713
			c0.54-0.258,2.241-0.732,3.653-0.775c1.411-0.043,2.241,0.258,1.951,1.464c-4.193,0-7.016,0.861-7.597,3.574
			c-0.831,4.651,4.276,4.521,6.31,2.498l-0.249,1.12h3.736l1.62-7.407C78.467,35.874,75.603,35.099,72.987,35.142z M73.236,42.721
			c-0.207,0.99-0.996,1.421-1.95,1.465c-0.83,0.042-1.578-0.69-1.038-1.551c0.416-0.732,1.578-0.904,2.283-0.904
			c0.29,0,0.623,0,0.913,0C73.361,42.075,73.319,42.377,73.236,42.721z"/>
		<polygon fill-rule="evenodd" fill="#187FAD" points="81,32.213 77.909,46.424 81.704,46.424 84.833,32.213 81,32.213 81,32.213 		
			"/>
		<path fill-rule="evenodd" fill="#187FAD" d="M63.563,32.257h-6.948l-3.079,14.168h4.036l1.041-4.694h2.871
			c2.829,0,5.159-1.722,5.783-4.651C67.973,33.764,65.56,32.257,63.563,32.257z M63.439,37.08c-0.25,1.077-1.332,1.938-2.373,1.938
			h-1.872l0.832-3.875h1.997C63.064,35.142,63.688,36.003,63.439,37.08z"/>
		<path fill-rule="evenodd" fill="#195A7F" d="M36.601,35.142c-1.763,0-3.158,0.474-4.183,0.689l-0.328,2.713
			c0.492-0.258,2.174-0.732,3.567-0.775c1.395-0.043,2.215,0.258,1.969,1.464c-4.142,0-6.93,0.861-7.504,3.574
			c-0.82,4.651,4.224,4.521,6.192,2.498l-0.246,1.12h3.732l1.599-7.407C42.055,35.874,39.184,35.099,36.601,35.142z M36.888,42.721
			c-0.205,0.99-1.025,1.421-1.968,1.465c-0.82,0.042-1.517-0.69-0.984-1.551c0.41-0.732,1.558-0.904,2.214-0.904
			c0.328,0,0.615,0,0.943,0C37.011,42.075,36.929,42.377,36.888,42.721z"/>
		<polygon fill-rule="evenodd" fill="#195A7F" points="43.024,35.345 46.756,35.345 47.357,41.944 51.009,35.345 54.86,35.345 
			45.993,51.136 41.821,51.136 44.549,46.494 43.024,35.345 43.024,35.345 		"/>
		<path fill-rule="evenodd" fill="#195A7F" d="M27.319,32.257h-6.966l-3.087,14.168h4.088l1.001-4.694h2.92
			c2.795,0,5.131-1.722,5.757-4.651C31.741,33.764,29.363,32.257,27.319,32.257z M27.194,37.08c-0.25,1.077-1.293,1.938-2.336,1.938
			H22.94l0.876-3.875h2.002C26.819,35.142,27.486,36.003,27.194,37.08z"/>
		<path fill="#195A7F" d="M85.652,34.05v-1.675h-0.625V32.15h1.506v0.224h-0.628v1.675H85.652z"/>
		<path fill="#195A7F" d="M86.782,34.05v-1.9h0.376l0.451,1.345c0.042,0.125,0.072,0.219,0.091,0.281
			c0.022-0.069,0.056-0.171,0.101-0.304l0.456-1.321h0.338v1.9h-0.242v-1.591l-0.554,1.591h-0.226l-0.549-1.616v1.616H86.782z"/>
	</g>
	<g>
		<path fill="#3E3C42" d="M0,44.864h1.36l4.501-12.563h2.261l4.501,12.563h1.36v1.561H9.082v-1.561h1.501l-1.101-3.141H4.481
			l-1.101,3.141h1.521v1.561H0V44.864z M8.982,40.123l-1.721-4.9c-0.2-0.58-0.24-1.08-0.24-1.08h-0.06c0,0-0.061,0.5-0.24,1.08
			l-1.74,4.9H8.982z"/>
	</g>
	<g>
		<path fill="#3E3C42" d="M96.648,32.061c1.7,0,5.381,0.62,5.381,2.801v1.721h-1.86v-1.101c0-1.24-2.141-1.7-3.44-1.7
			c-3.021,0-5.241,2.221-5.241,5.421c0,3.341,2.28,5.722,5.36,5.722c1.001,0,3.521-0.36,3.521-1.661v-1.1h1.86v1.72
			c0,2.081-3.541,2.781-5.501,2.781c-4.241,0-7.302-3.261-7.302-7.382C89.427,35.142,92.567,32.061,96.648,32.061z"/>
		<path fill="#3E3C42" d="M109.588,36.062c3.021,0,5.461,2.221,5.461,5.281c0,3.081-2.44,5.321-5.461,5.321
			c-3.021,0-5.462-2.24-5.462-5.321C104.126,38.283,106.566,36.062,109.588,36.062z M109.588,44.984c1.9,0,3.48-1.521,3.48-3.641
			c0-2.101-1.58-3.601-3.48-3.601c-1.921,0-3.481,1.5-3.481,3.601C106.106,43.464,107.667,44.984,109.588,44.984z"/>
		<path fill="#3E3C42" d="M116.726,44.925h1.581v-6.702c0-0.279-0.16-0.42-0.44-0.42h-1.24v-1.5h2.28c0.86,0,1.28,0.38,1.28,1.12
			v0.521c0,0.319-0.06,0.58-0.06,0.58h0.04c0.5-1.2,1.96-2.461,3.601-2.461c1.62,0,2.62,0.74,2.96,2.381h0.04
			c0.561-1.261,1.961-2.381,3.621-2.381c2.24,0,3.301,1.301,3.301,3.881v4.981h1.601v1.5h-3.541v-6.062c0-1.42-0.26-2.54-1.78-2.54
			c-1.9,0-2.98,1.94-2.98,3.94v3.161h1.58v1.5h-3.521v-6.062c0-1.32-0.2-2.54-1.761-2.54c-1.92,0-3.041,2.04-3.041,4.021v3.081
			h1.601v1.5h-5.121V44.925z"/>
		<path fill="#3E3C42" d="M137.907,48.926V38.243c0-0.3-0.16-0.44-0.44-0.44h-1.24v-1.5h2.24c0.9,0,1.24,0.4,1.24,1v0.08
			c0,0.32-0.04,0.58-0.04,0.58h0.04c0,0,0.841-1.9,3.401-1.9c2.721,0,4.44,2.16,4.44,5.301c0,3.221-1.94,5.302-4.581,5.302
			c-2.22,0-3.141-1.721-3.141-1.721h-0.04c0,0,0.061,0.36,0.061,0.88v3.102h1.6v1.5h-5.121v-1.5H137.907z M142.668,44.984
			c1.601,0,2.921-1.3,2.921-3.601c0-2.2-1.181-3.621-2.881-3.621c-1.5,0-2.9,1.061-2.9,3.641
			C139.808,43.204,140.787,44.984,142.668,44.984z"/>
		<path fill="#3E3C42" d="M154.947,40.203h0.64v-0.38c0-1.601-0.92-2.16-2.16-2.16c-1.601,0-2.9,0.98-2.9,0.98l-0.78-1.381
			c0,0,1.48-1.2,3.841-1.2c2.58,0,3.94,1.341,3.94,3.901v4.521c0,0.3,0.16,0.44,0.44,0.44h1.021v1.5h-2.021
			c-0.9,0-1.261-0.44-1.261-1.101v-0.14c0-0.4,0.08-0.66,0.08-0.66h-0.04c0,0-0.88,2.141-3.341,2.141c-1.68,0-3.36-0.98-3.36-3.061
			C149.046,40.424,153.267,40.203,154.947,40.203z M152.827,45.164c1.72,0,2.78-1.76,2.78-3.28v-0.42h-0.5
			c-0.921,0-4.102,0.04-4.102,1.98C151.006,44.344,151.666,45.164,152.827,45.164z"/>
		<path fill="#3E3C42" d="M160.445,44.925h1.581v-6.682c0-0.3-0.16-0.44-0.44-0.44h-1.24v-1.5h2.28c0.88,0,1.28,0.38,1.28,1.12
			v0.521c0,0.319-0.06,0.58-0.06,0.58h0.04c0.199-0.54,1.38-2.461,3.94-2.461c2.32,0,3.36,1.301,3.36,3.881v4.981h1.601v1.5h-3.541
			v-6.041c0-1.421-0.279-2.541-1.9-2.541c-2.04,0-3.38,1.86-3.38,3.881v3.201h1.6v1.5h-5.121V44.925z"/>
		<path fill="#3E3C42" d="M175.687,49.005c0.86,0,1.521-0.6,1.86-1.399l0.42-1.001l-3.541-8.802h-1.28v-1.5h4.621v1.5h-1.34
			l2.261,6.021c0.14,0.44,0.18,0.88,0.18,0.88h0.06c0,0,0.08-0.439,0.24-0.88l2.24-6.021h-1.3v-1.5h4.48v1.5h-1.26l-4.001,10.223
			c-0.68,1.72-2,2.601-3.561,2.601c-1.301,0-2.181-0.641-2.181-0.641l0.66-1.46C174.246,48.525,174.826,49.005,175.687,49.005z"/>
	</g>
</g>
</svg>
