<?xml version="1.0" encoding="utf-8"?>
<!-- Generator: Adobe Illustrator 17.1.0, SVG Export Plug-In . SVG Version: 6.00 Build 0)  -->
<svg version="1.2" baseProfile="tiny" id="Layer_1" xmlns:sketch="http://www.bohemiancoding.com/sketch/ns"
	 xmlns="http://www.w3.org/2000/svg" xmlns:xlink="http://www.w3.org/1999/xlink" x="0px" y="0px" viewBox="0 0 188 46.131"
	 overflow="scroll" xml:space="preserve">
<title>bt-logo</title>
<desc>Created with Sketch.</desc>
<g id="Page-1" sketch:type="MSPage">
	<g id="Features-Landing" transform="translate(-87.000000, -44.000000)" sketch:type="MSArtboardGroup">
		<g id="Header-Block-2" transform="translate(-2.000000, 0.407080)" sketch:type="MSLayerGroup">
			
				<g id="_x31__x5F_Braintree_x5F_Logo_x5F_Master_x5F_File" transform="translate(89.000000, 44.000000)" sketch:type="MSShapeGroup">
				<path id="Fill-1" fill="#3E3C42" d="M6.154,21.228h4.379c3.381,0,5.071-1.108,5.071-3.247c0-2.101-1.806-3.246-5.34-3.246h-4.11
					V21.228L6.154,21.228z M6.154,5.568v6.035h3.841c2.881,0,4.379-1.07,4.379-3.018c0-1.986-1.536-3.018-4.417-3.018L6.154,5.568
					L6.154,5.568z M0.047,24.474v-3.246H2.62V5.568H0.047V2.321h10.294c4.725,0,7.605,2.177,7.605,5.958
					c0,2.482-1.459,4.01-3.303,4.736c2.65,0.726,4.533,2.597,4.533,5.156c0,4.048-3.15,6.302-8.297,6.302L0.047,24.474L0.047,24.474
					z"/>
				<path id="Fill-2" fill="#3E3C42" d="M37.846,12.94c-0.384-1.299-1.345-2.063-2.612-2.063c-2.958,0-5.762,2.177-5.762,6.149
					v4.202h5.685v3.246H22.48v-3.246h3.611V11.45h-2.842V8.203h6.184v2.75c1.037-1.91,3.15-3.285,5.954-3.285
					c3.15,0,5.109,1.795,5.685,4.354L37.846,12.94"/>
				<path id="Fill-3" fill="#3E3C42" d="M55.132,17.904c-1.075-0.382-2.688-0.688-4.187-0.688c-2.151,0-4.226,0.688-4.226,2.636
					c0,1.451,1.306,2.139,3.111,2.139c2.497,0,5.301-1.337,5.301-3.629L55.132,17.904L55.132,17.904z M55.132,15.002v-0.917
					c0-2.292-1.844-3.247-3.841-3.247c-1.882,0-3.496,0.764-4.802,1.948l-2.228-2.406c1.537-1.414,3.726-2.712,7.03-2.712
					c4.11,0,7.298,2.178,7.298,6.302v7.258h2.382v3.246h-5.839v-1.719c-0.883,1.414-3.265,2.254-5.608,2.254
					c-3.38,0-6.3-1.719-6.3-5.118c0-4.011,3.957-5.538,7.567-5.538C52.559,14.353,54.018,14.696,55.132,15.002L55.132,15.002z"/>
				<path id="Fill-4" fill="#3E3C42" d="M71.382-0.009h3.803v4.965h-3.803V-0.009z M81.484,21.228v3.246H64.967v-3.246h6.837V11.45
					H66.58V8.203h8.604v13.024L81.484,21.228L81.484,21.228z"/>
				<path id="Fill-5" fill="#3E3C42" d="M85.557,21.228h2.497V11.45H85.71V8.203h5.686v2.1c0.999-1.604,3.073-2.635,5.608-2.635
					c3.649,0,6.262,2.292,6.262,5.997v7.562h2.496v3.246h-8.488v-3.246h2.611v-6.646c0-2.826-1.729-3.628-3.304-3.628
					c-2.573,0-5.147,1.91-5.147,4.851v5.424h2.612v3.246h-8.489V21.228"/>
				<path id="Fill-6" fill="#3E3C42" d="M110.41,11.449h-4.264V8.203h4.264V2.321h3.381v5.882h7.951v3.246h-7.951v6.837
					c0,2.521,1.768,3.553,3.803,3.553c1.921,0,3.534-1.07,4.725-2.254l2.267,2.33c-1.498,1.604-3.803,3.094-6.991,3.094
					c-4.109,0-7.184-2.254-7.184-6.607L110.41,11.449"/>
				<path id="Fill-7" fill="#3E3C42" d="M143.023,12.94c-0.384-1.299-1.344-2.063-2.611-2.063c-2.958,0-5.762,2.177-5.762,6.149
					v4.202h5.686v3.246h-12.677v-3.246h3.61V11.45h-2.843V8.203h6.185v2.75c1.037-1.91,3.15-3.285,5.954-3.285
					c3.149,0,5.109,1.795,5.685,4.354L143.023,12.94"/>
				<path id="Fill-8" fill="#3E3C42" d="M152.129,14.658h10.063c-0.499-2.33-2.573-3.896-4.878-3.896
					C154.702,10.762,152.705,12.366,152.129,14.658L152.129,14.658z M165.765,21.991c-1.689,1.757-4.686,3.018-8.028,3.018
					c-5.492,0-9.334-3.667-9.334-8.67c0-5.004,3.727-8.671,8.912-8.671c5.147,0,8.758,3.935,8.758,9.281v0.573h-14.098
					c0.576,2.712,2.843,4.354,5.801,4.354c2.458,0,4.57-0.992,5.724-2.253L165.765,21.991L165.765,21.991z"/>
				<path id="Fill-9" fill="#3E3C42" d="M173.141,14.658h10.064c-0.499-2.33-2.573-3.896-4.878-3.896
					C175.715,10.762,173.717,12.366,173.141,14.658L173.141,14.658z M186.777,21.991c-1.689,1.757-4.686,3.018-8.027,3.018
					c-5.493,0-9.335-3.667-9.335-8.67c0-5.004,3.726-8.671,8.912-8.671c5.147,0,8.759,3.935,8.759,9.281v0.573h-14.099
					c0.577,2.712,2.843,4.354,5.801,4.354c2.458,0,4.571-0.992,5.724-2.253L186.777,21.991L186.777,21.991z"/>
			</g>
		</g>
	</g>
</g>
<image width="58" height="16" xlink:href="2609060C.png"  transform="matrix(1 0 0 1 84 30.69)">
</image>
<image width="9" height="9" xlink:href="2609060B.png"  transform="matrix(1 0 0 1 71 34.69)">
</image>
<image width="43" height="12" xlink:href="26090614.png"  transform="matrix(1 0 0 1 145 34.69)">
</image>
</svg>
