<?xml version="1.0" encoding="utf-8"?>
<!-- Generator: Adobe Illustrator 17.1.0, SVG Export Plug-In . SVG Version: 6.00 Build 0)  -->
<svg version="1.2" baseProfile="tiny" id="PwC" xmlns="http://www.w3.org/2000/svg" xmlns:xlink="http://www.w3.org/1999/xlink"
	 x="0px" y="0px" viewBox="0 0 283.464 215.149" overflow="scroll" xml:space="preserve">
<g>
	<g>
		<path d="M191.939,142.104c-9.123,1.474-13.787,8.213-13.787,20.071c0,11.933,6.213,19.912,15.738,19.912
			c4.432,0,8.459-1.473,16.924-5.625v9.652c-10.16,4.66-16.141,6.102-24.326,6.102c-8.863,0-15.098-2.354-20.189-7.543
			c-5.219-5.22-7.828-12.115-7.828-19.791c0-17.078,12.643-28.633,31.109-28.633c12.266,0,20.701,5.604,20.701,13.834
			c0,5.299-3.926,8.945-9.752,8.945c-2.99,0-5.447-0.783-8.59-2.608V142.104z"/>
		<path d="M146.919,164.882c8.18-10.312,11.068-14.47,11.068-19.533c0-5.041-4.002-9.1-9.348-9.1c-3.293,0-6.257,1.555-7.705,3.171
			v21.005l-13.402,17.857V137.57h-12.742l-21.182,35.116V137.57h-7.322l-19.229,4.688v4.915l10.488,1.064v43.066h13.557
			l20.316-33.388v33.388h14.846L146.919,164.882z"/>
		<path d="M26.572,184.673c1.443,0.068,2.076,0.068,2.988,0.068c10.92,0,16.773-6.809,16.773-19.859
			c0-11.049-4.789-16.924-13.629-16.924c-1.471,0-3.016,0.179-6.133,0.558V184.673z M26.572,208.206l8.791,1.955l0,4.988H0.877
			v-4.988l7.859-1.955v-60.248H0v-5.167l21.098-6.408h5.475v7.194c9.881-5.879,13.275-6.92,18.344-6.92
			c11.705,0,20.344,10.795,20.344,25.742c0,17.279-11.527,28.904-29.691,28.904c-2.055,0-5.473-0.125-8.996-0.529V208.206z"/>
	</g>
	<rect x="180.359" y="65.992" fill="#F0659D" width="103.105" height="26.393"/>
	<rect x="180.359" y="10.311" fill="#FAB383" width="63.006" height="82.074"/>
	<rect x="180.359" y="0" fill="#F7942F" width="52.648" height="92.385"/>
	<rect x="180.359" y="26.381" fill="#FDB924" width="89.711" height="66.004"/>
	<rect x="180.359" y="52.766" fill="#C8A68C" width="32.926" height="39.619"/>
	<rect x="127.564" y="92.385" fill="#C22C26" width="52.794" height="13.199"/>
</g>
</svg>
