<?xml version="1.0" encoding="UTF-8" standalone="no"?>
<!-- Created with Inkscape (http://www.inkscape.org/) -->

<svg
   xmlns:dc="http://purl.org/dc/elements/1.1/"
   xmlns:cc="http://creativecommons.org/ns#"
   xmlns:rdf="http://www.w3.org/1999/02/22-rdf-syntax-ns#"
   xmlns:svg="http://www.w3.org/2000/svg"
   xmlns="http://www.w3.org/2000/svg"
   xmlns:inkscape="http://www.inkscape.org/namespaces/inkscape"
   version="1.1"
   width="354.32501"
   height="268.9375"
   id="svg2"
   xml:space="preserve"><metadata
     id="metadata8"><rdf:RDF><cc:Work
         rdf:about=""><dc:format>image/svg+xml</dc:format><dc:type
           rdf:resource="http://purl.org/dc/dcmitype/StillImage" /></cc:Work></rdf:RDF></metadata><defs
     id="defs6"><clipPath
       id="clipPath18"><path
         d="m 0,0 2834.64,0 0,2151 L 0,2151 0,0 z"
         inkscape:connector-curvature="0"
         id="path20" /></clipPath></defs><g
     transform="matrix(1.25,0,0,-1.25,0,268.9375)"
     id="g10"><g
       transform="scale(0.1,0.1)"
       id="g12"><g
         id="g14"><g
           clip-path="url(#clipPath18)"
           id="g16"><path
             d="m 1919.39,730.449 c -91.23,-14.73 -137.87,-82.117 -137.87,-200.711 0,-119.316 62.13,-199.117 157.38,-199.117 44.32,0 84.59,14.731 169.24,56.25 l 0,-96.519 c -101.6,-46.602 -161.41,-61.024 -243.26,-61.024 -88.63,0 -150.98,23.543 -201.9,75.434 -52.18,52.199 -78.28,121.148 -78.28,197.91 0,170.777 126.43,286.328 311.1,286.328 122.65,0 207.01,-56.039 207.01,-138.34 0,-52.988 -39.26,-89.449 -97.52,-89.449 -29.9,0 -54.47,7.828 -85.9,26.078 l 0,143.16"
             inkscape:connector-curvature="0"
             id="path22"
             style="fill:#231f20;fill-opacity:1;fill-rule:nonzero;stroke:none" /><path
             d="m 1469.19,502.672 c 81.8,103.117 110.69,144.699 110.69,195.328 0,50.41 -40.02,91 -93.48,91 -32.93,0 -62.57,-15.551 -77.04,-31.711 l 0,-210.051 -134.03,-178.566 0,407.117 -127.42,0 -211.816,-351.168 0,351.168 -73.223,0 -192.285,-46.879 0,-49.148 104.883,-10.641 0,-430.672 135.566,0 203.165,333.879 0,-333.879 148.46,0 206.53,264.223"
             inkscape:connector-curvature="0"
             id="path24"
             style="fill:#231f20;fill-opacity:1;fill-rule:nonzero;stroke:none" /><path
             d="M 265.723,69.4297 353.633,49.8789 353.637,0 8.76953,0 l 0,49.8789 78.59377,19.5508 0,602.4803 -87.3633,0 0,51.668 210.977,64.082 54.746,0 0,-71.941 c 98.808,58.793 132.754,69.203 183.437,69.203 117.051,0 203.438,-107.953 203.438,-257.422 0,-172.801 -115.274,-289.051 -296.914,-289.051 -20.547,0 -54.727,1.25 -89.961,5.301 l 0,-174.3203 z m 0,235.3323 c 14.433,-0.68 20.761,-0.68 29.882,-0.68 109.2,0 167.735,68.078 167.735,198.59 0,110.488 -47.891,169.238 -136.289,169.238 -14.707,0 -30.156,-1.789 -61.328,-5.582 l 0,-361.566"
             inkscape:connector-curvature="0"
             id="path26"
             style="fill:#231f20;fill-opacity:1;fill-rule:nonzero;stroke:none" /><path
             d="m 2700.7,1227.64 133.941,0 0,263.922 -133.941,0 0,-263.922 z"
             inkscape:connector-curvature="0"
             id="path28"
             style="fill:#f13ea0;fill-opacity:1;fill-rule:nonzero;stroke:none" /><path
             d="m 2330.07,1887.68 103.578,0 0,160.707 -103.578,0 0,-160.707 z"
             inkscape:connector-curvature="0"
             id="path30"
             style="fill:#f9a771;fill-opacity:1;fill-rule:nonzero;stroke:none" /><path
             d="m 1803.59,2048.39 526.48,0 0,103.102 -526.48,0 0,-103.102 z"
             inkscape:connector-curvature="0"
             id="path32"
             style="fill:#f68620;fill-opacity:1;fill-rule:nonzero;stroke:none" /><path
             d="m 1803.59,1491.57 0,556.82 526.48,0 0,-160.71 -526.48,0 0,-396.11"
             inkscape:connector-curvature="0"
             id="path34"
             style="fill:#f3611e;fill-opacity:1;fill-rule:nonzero;stroke:none" /><path
             d="m 2433.65,1491.57 267.051,0 0,396.113 -267.051,0 0,-396.113 z"
             inkscape:connector-curvature="0"
             id="path36"
             style="fill:#fab116;fill-opacity:1;fill-rule:nonzero;stroke:none" /><path
             d="m 2433.65,1227.64 267.051,0 0,263.922 -267.051,0 0,-263.922 z"
             inkscape:connector-curvature="0"
             id="path38"
             style="fill:#f03f24;fill-opacity:1;fill-rule:nonzero;stroke:none" /><path
             d="m 2330.07,1491.57 103.578,0 0,396.113 -103.578,0 0,-396.113 z"
             inkscape:connector-curvature="0"
             id="path40"
             style="fill:#f57d18;fill-opacity:1;fill-rule:nonzero;stroke:none" /><path
             d="m 2330.07,1227.64 103.578,0 0,263.922 -103.578,0 0,-263.922 z"
             inkscape:connector-curvature="0"
             id="path42"
             style="fill:#ef3323;fill-opacity:1;fill-rule:nonzero;stroke:none" /><path
             d="m 2330.07,1491.57 -197.22,0 0,132.27 -329.26,0 0,-132.27 0,396.11 526.48,0 0,-396.11"
             inkscape:connector-curvature="0"
             id="path44"
             style="fill:#f14c1c;fill-opacity:1;fill-rule:nonzero;stroke:none" /><path
             d="m 2132.85,1227.64 197.219,0 0,263.922 -197.219,0 0,-263.922 z"
             inkscape:connector-curvature="0"
             id="path46"
             style="fill:#ee2822;fill-opacity:1;fill-rule:nonzero;stroke:none" /><path
             d="m 1803.59,1491.57 329.262,0 0,132.27 -329.262,0 0,-132.27 z"
             inkscape:connector-curvature="0"
             id="path48"
             style="fill:#c53a21;fill-opacity:1;fill-rule:nonzero;stroke:none" /><path
             d="m 1803.59,1227.64 329.262,0 0,263.922 -329.262,0 0,-263.922 z"
             inkscape:connector-curvature="0"
             id="path50"
             style="fill:#c42523;fill-opacity:1;fill-rule:nonzero;stroke:none" /><path
             d="m 1275.64,1095.65 527.949,0 0,131.992 -527.949,0 0,-131.992 z"
             inkscape:connector-curvature="0"
             id="path52"
             style="fill:#c32523;fill-opacity:1;fill-rule:nonzero;stroke:none" /></g></g></g></g></svg>