<?xml version="1.0" encoding="utf-8"?>
<!-- Generator: Adobe Illustrator 17.1.0, SVG Export Plug-In . SVG Version: 6.00 Build 0)  -->
<svg version="1.2" baseProfile="tiny" id="Layer_1" xmlns="http://www.w3.org/2000/svg" xmlns:xlink="http://www.w3.org/1999/xlink"
	 x="0px" y="0px" viewBox="0 0 453.542 88.486" xml:space="preserve">
<path fill="#FFFFFF" d="M10.913,7.816H7.669v73.148h3.244V7.816z M18.434,88.485H0V0h18.434V88.485z"/>
<g>
	<path fill="#FFFFFF" d="M83.322,23.449c0-8.701-6.931-15.78-15.338-15.78H35.245v73.148h3.097V10.766h29.642
		c6.637,0,12.241,5.752,12.241,12.683v57.368h3.097V23.449z M91.138,23.449v65.037H72.704V23.449c0-2.655-2.065-5.014-4.72-5.014
		H45.863v70.051H27.429V0.001h40.555C80.52,0.001,91.138,10.619,91.138,23.449"/>
</g>
<path fill="#2EABB0" d="M161.497,7.816h-3.244v73.148h3.244V7.816z M169.018,88.485h-18.434V0h18.434V88.485z"/>
<g>
	<path fill="#2EABB0" d="M230.219,21.974h3.097c-0.59-7.963-7.374-14.305-15.632-14.305h-16.517
		c-8.554,0-15.633,6.932-15.633,15.633v41.883c0,8.553,7.079,15.632,15.633,15.632h16.517c8.553,0,15.632-6.784,15.632-15.485
		V46.603l-16.222,4.129v3.244l13.272-3.244v14.6c0,6.931-5.751,12.388-12.682,12.388h-16.517c-6.784,0-12.536-5.604-12.536-12.535
		V23.302c0-6.932,5.752-12.536,12.536-12.536h16.517C224.173,10.766,229.629,15.633,230.219,21.974 M222.698,29.643v-6.341
		c0-2.802-2.212-5.014-5.014-5.014h-16.517c-2.655,0-4.867,2.212-4.867,5.014v41.883c0,2.654,2.212,4.866,4.867,4.866h16.517
		c2.802,0,5.014-1.917,5.014-4.571v-4.867l-13.273,3.244V44.833l31.707-7.964v28.463c0,12.831-10.618,23.154-23.448,23.154h-16.517
		c-12.831,0-23.154-10.471-23.154-23.301V23.302c0-12.831,10.323-23.301,23.154-23.301h16.517c12.83,0,23.448,10.47,23.448,23.301
		v6.194L222.698,29.643z"/>
</g>
<path fill="#2EABB0" d="M306.02,7.668h-3.245V42.62l-41.883,11.061V7.668h-3.244v73.296h3.244V57.073l41.883-11.208v35.099h3.245
	V7.668z M313.541,0v88.485h-18.434v-32.74l-26.546,7.227v25.513h-18.434V0h18.434v43.8l26.546-7.079V0H313.541z"/>
<path fill="#2EABB0" d="M375.036,7.668h-44.98v3.098h21.236v70.05h3.098v-70.05h20.646V7.668z M382.852,0v18.434h-20.794v70.051
	h-18.582V18.434h-21.089V0H382.852z"/>
<g>
	<path fill="#2EABB0" d="M442.039,19.319h3.245c-1.77-6.341-7.374-11.06-14.158-11.503h-18.877c-8.848,0-15.927,6.932-15.927,15.78
		c0,0.148,0,5.014,0.147,12.978c0,4.129,1.623,7.816,4.572,10.176c2.065,1.622,4.572,2.507,7.521,2.507
		c1.18,0,2.36-0.148,3.54-0.443l14.747-3.539c0,0,2.95-0.737,4.719-0.737h0.738c5.752,1.032,10.471,6.194,10.471,12.535v7.964
		c0,7.078-5.752,12.682-12.536,12.682h-18.139c-4.425,0-8.259-2.211-10.619-5.604h-3.539c2.655,5.162,7.964,8.701,14.158,8.701
		h18.139c8.554,0,15.633-7.078,15.633-15.779v-7.964c0-8.701-7.374-15.632-15.633-15.632c-1.475,0-4.719,0.884-4.719,0.884
		l-14.158,3.392c-0.884,0.295-1.917,0.443-2.802,0.443c-2.212,0-4.129-0.738-5.604-1.917c-2.212-1.622-3.539-4.425-3.539-7.669
		V23.449c0-6.932,5.751-12.536,12.83-12.536h18.582C435.993,11.061,440.417,14.6,442.039,19.319 M435.108,26.988v-3.539
		c0-2.655-2.212-4.72-4.719-4.867h-18.14c-2.802,0-5.161,2.212-5.161,4.867v13.125c0,1.032,0.295,1.622,0.442,1.77
		c0.147,0.147,0.442,0.147,0.885,0.147c0.295,0,0.737,0,1.18-0.147l16.369-3.835c0,0,2.802-0.59,4.277-0.59
		c12.388,0,23.301,10.324,23.301,23.154v7.964c0,12.978-10.618,23.448-23.301,23.448h-18.139c-12.978,0-23.449-10.47-23.449-23.448
		v-0.738h18.435v0.738c0,2.654,2.359,5.014,5.014,5.014h18.139c2.655,0,4.867-2.36,4.867-5.014v-7.964
		c0-2.655-1.917-4.424-4.129-5.014c-0.738-0.147-17.108,4.277-17.108,4.277c-1.769,0.442-3.539,0.589-5.309,0.589
		c-4.572,0-8.848-1.327-12.24-4.276c-4.867-3.687-7.669-9.439-7.669-16.075V23.596C388.653,10.618,399.271,0,412.249,0h19.467
		c12.24,0,21.826,11.061,21.826,23.449v3.539H435.108z"/>
	<path fill="#2EABB0" d="M141.442,65.037v-7.964c0-12.83-10.913-23.153-23.301-23.153c-1.475,0-4.277,0.59-4.277,0.59l-13.445,3.149
		v7.782l13.003-3.115c0,0,3.244-0.885,4.719-0.885c8.258,0,15.632,6.931,15.632,15.632v7.964c0,8.701-7.078,15.78-15.632,15.78
		h-17.722v7.669h17.722C130.824,88.486,141.442,78.015,141.442,65.037"/>
	<path fill="#2EABB0" d="M130.676,65.037v-7.964c0-6.341-4.719-11.503-10.471-12.535h-0.737c-1.77,0-4.72,0.737-4.72,0.737
		l-14.329,3.439v7.905c0.451-0.077,0.901-0.17,1.352-0.283c0,0,16.369-4.424,17.107-4.277c2.212,0.59,4.129,2.36,4.129,5.014v7.964
		c0,2.655-2.212,5.014-4.867,5.014h-17.721v7.669h17.721C124.924,77.72,130.676,72.116,130.676,65.037"/>
	<path fill="#2EABB0" d="M119.615,0H92.236c0.095,0.094,0.194,0.183,0.289,0.278c2.254,2.274,4.135,4.813,5.622,7.538h20.878
		c6.784,0.443,12.388,5.162,14.158,11.503h-3.245c-1.622-4.719-6.046-8.258-11.208-8.406H99.244c1.02,2.452,1.738,5.024,2.134,7.669
		h16.91c2.507,0.147,4.719,2.212,4.719,4.866v3.54h18.434v-3.54C141.441,11.061,131.855,0,119.615,0"/>
</g>
</svg>
