<?xml version="1.0" encoding="utf-8"?>
<!-- Generator: Adobe Illustrator 17.1.0, SVG Export Plug-In . SVG Version: 6.00 Build 0)  -->
<svg version="1.2" baseProfile="tiny" id="Layer_1" xmlns="http://www.w3.org/2000/svg" xmlns:xlink="http://www.w3.org/1999/xlink"
	 x="0px" y="0px" viewBox="0 15.308 56.69 26.073" overflow="scroll" xml:space="preserve">
<g id="Layer_1_1_">
	<g>
		<g>
			<path fill="#29292A" d="M12.787,25.694c0.34,0,0.685,0.072,1.013,0.225c1.201,0.56,1.721,1.988,1.161,3.189
				c-0.337,0.722-0.987,1.198-1.714,1.341l2.259,6.208c0.254,0.698-0.106,1.469-0.804,1.723c-0.152,0.055-0.307,0.081-0.46,0.081
				c-0.198,0-0.392-0.044-0.568-0.126c-0.312-0.146-0.568-0.41-0.695-0.759l-1.373-3.773l-2.858,6.129
				c-0.228,0.489-0.713,0.777-1.219,0.777c-0.19,0-0.384-0.041-0.567-0.126c-0.673-0.314-0.964-1.114-0.65-1.787l2.858-6.129
				l-3.773,1.373c-0.152,0.055-0.307,0.082-0.46,0.082c-0.549,0-1.065-0.339-1.263-0.885c-0.254-0.698,0.106-1.469,0.803-1.723
				l6.208-2.26c-0.358-0.648-0.412-1.453-0.075-2.175C11.018,26.207,11.883,25.694,12.787,25.694 M12.787,25.021
				c-0.577,0-1.141,0.162-1.631,0.468c-0.504,0.314-0.903,0.766-1.155,1.307c-0.208,0.446-0.307,0.94-0.285,1.428
				c0.009,0.214,0.041,0.426,0.095,0.634l-5.563,2.025c-0.506,0.184-0.91,0.554-1.138,1.043c-0.228,0.488-0.252,1.036-0.067,1.542
				c0.289,0.794,1.05,1.327,1.895,1.327c0.235,0,0.467-0.041,0.69-0.122l2.248-0.818l-2.172,4.658
				c-0.228,0.488-0.252,1.036-0.067,1.542c0.184,0.506,0.555,0.91,1.043,1.138c0.269,0.126,0.556,0.189,0.851,0.189
				c0.781,0,1.499-0.457,1.829-1.165l2.172-4.658l0.818,2.248c0.184,0.506,0.554,0.91,1.043,1.138
				c0.266,0.124,0.56,0.189,0.852,0.189c0.235,0,0.467-0.041,0.689-0.122c0.506-0.184,0.91-0.555,1.138-1.043
				c0.228-0.488,0.252-1.036,0.067-1.542l-2.025-5.564c0.193-0.092,0.377-0.205,0.546-0.335c0.388-0.298,0.703-0.691,0.911-1.137
				c0.347-0.744,0.383-1.578,0.103-2.349c-0.281-0.771-0.845-1.387-1.588-1.734C13.674,25.118,13.237,25.021,12.787,25.021
				L12.787,25.021z"/>
			<g>
				<path fill="#FFFFFF" d="M12.767,40.543c-1.82,0-3.584-0.392-5.243-1.166c-1.521-0.709-2.858-1.696-3.974-2.935
					c-1.078-1.195-1.905-2.572-2.458-4.093c-0.553-1.52-0.805-3.107-0.748-4.715c0.059-1.666,0.449-3.282,1.158-4.803
					c1.02-2.187,2.64-4.017,4.683-5.291c1.991-1.241,4.279-1.897,6.619-1.897c1.82,0,3.584,0.392,5.243,1.166
					c6.222,2.901,8.923,10.323,6.022,16.545c-1.02,2.188-2.64,4.017-4.683,5.291C17.395,39.888,15.107,40.544,12.767,40.543
					C12.768,40.543,12.767,40.543,12.767,40.543z"/>
				<path fill="#29292A" d="M12.804,15.981c1.712,0,3.45,0.364,5.101,1.134c6.054,2.823,8.682,10.045,5.859,16.099
					c-2.053,4.403-6.432,6.994-10.997,6.994c-1.712,0-3.45-0.365-5.101-1.134C1.612,36.25-1.016,29.028,1.807,22.974
					C3.86,18.571,8.239,15.981,12.804,15.981 M12.804,15.308c-2.402,0-4.752,0.674-6.796,1.948c-2.099,1.309-3.763,3.188-4.81,5.434
					c-0.728,1.562-1.128,3.221-1.189,4.933c-0.059,1.652,0.199,3.281,0.768,4.842c0.568,1.561,1.418,2.975,2.524,4.203
					c1.147,1.272,2.52,2.286,4.082,3.014c1.704,0.794,3.516,1.197,5.385,1.197c2.402,0,4.752-0.674,6.796-1.948
					c2.099-1.309,3.763-3.188,4.81-5.434c2.98-6.39,0.205-14.012-6.184-16.992C16.486,15.711,14.674,15.308,12.804,15.308
					L12.804,15.308z"/>
			</g>
			<path fill="#F0F0EF" d="M15.506,36.657l-2.259-6.208c0.726-0.143,1.377-0.618,1.714-1.341c0.56-1.201,0.041-2.629-1.161-3.189
				c-1.201-0.56-2.629-0.041-3.189,1.161c-0.337,0.722-0.283,1.527,0.075,2.175l-6.208,2.26C3.78,31.768,3.42,32.54,3.674,33.237
				c0.254,0.698,1.025,1.058,1.723,0.803l3.773-1.373l-2.858,6.129c-0.314,0.673-0.023,1.473,0.65,1.787
				c0.673,0.314,1.473,0.023,1.787-0.65l2.858-6.129l1.373,3.773c0.127,0.349,0.383,0.613,0.695,0.759
				c0.312,0.145,0.679,0.172,1.028,0.045C15.401,38.126,15.76,37.355,15.506,36.657z"/>
			<path fill="#2EAEB0" d="M17.509,17.966c-5.585-2.604-12.247-0.179-14.851,5.406c-2.604,5.585-0.179,12.247,5.406,14.851
				c5.585,2.604,12.247,0.18,14.851-5.405S23.093,20.57,17.509,17.966z"/>
			<path fill="#FFFFFF" d="M15.506,36.657l-2.259-6.208c0.726-0.143,1.377-0.618,1.714-1.341c0.56-1.201,0.041-2.629-1.161-3.189
				c-1.201-0.56-2.629-0.041-3.189,1.161c-0.337,0.722-0.283,1.527,0.075,2.175l-6.208,2.26C3.78,31.768,3.42,32.54,3.674,33.237
				c0.254,0.698,1.025,1.058,1.723,0.803l3.773-1.373l-2.858,6.129c-0.314,0.673-0.023,1.473,0.65,1.787
				c0.673,0.314,1.473,0.023,1.787-0.65l2.858-6.129l1.373,3.773c0.127,0.349,0.383,0.613,0.695,0.759
				c0.312,0.145,0.679,0.172,1.028,0.045C15.401,38.126,15.76,37.355,15.506,36.657z"/>
			<path fill="#29292A" d="M21.884,22.981c-0.254-0.698-1.025-1.058-1.723-0.804l-3.773,1.373l2.858-6.129
				c0.314-0.673,0.023-1.473-0.65-1.787c-0.673-0.314-1.473-0.023-1.787,0.65l-2.858,6.129l-1.373-3.773
				c-0.254-0.698-1.025-1.058-1.723-0.804c-0.698,0.254-1.058,1.025-0.804,1.723l2.483,6.822c0.008,0.021,0.016,0.042,0.025,0.062
				c0.004,0.009,0.008,0.018,0.012,0.027c0.005,0.011,0.009,0.022,0.015,0.033c0.006,0.012,0.011,0.023,0.017,0.035
				c0.004,0.008,0.008,0.016,0.012,0.024c0.007,0.012,0.014,0.025,0.021,0.037c0.004,0.006,0.007,0.013,0.011,0.02
				c0.007,0.012,0.015,0.024,0.023,0.036c0.004,0.006,0.008,0.013,0.012,0.019c0.008,0.012,0.016,0.023,0.024,0.034
				c0.005,0.006,0.009,0.013,0.014,0.02c0.008,0.01,0.016,0.021,0.024,0.031c0.006,0.007,0.011,0.014,0.017,0.021
				c0.008,0.009,0.015,0.018,0.023,0.027c0.007,0.008,0.014,0.016,0.021,0.024c0.007,0.008,0.014,0.015,0.021,0.023
				c0.008,0.009,0.016,0.017,0.025,0.026c0.006,0.006,0.013,0.013,0.02,0.019c0.009,0.009,0.019,0.018,0.029,0.027
				c0.006,0.005,0.012,0.01,0.018,0.016c0.011,0.009,0.021,0.018,0.032,0.027c0.006,0.005,0.012,0.009,0.018,0.014
				c0.011,0.009,0.023,0.018,0.035,0.026c0.006,0.004,0.012,0.009,0.018,0.013c0.012,0.008,0.023,0.016,0.035,0.024
				c0.007,0.005,0.015,0.009,0.022,0.014c0.011,0.007,0.022,0.014,0.034,0.021c0.01,0.006,0.02,0.011,0.03,0.017
				c0.009,0.005,0.018,0.01,0.028,0.015c0.02,0.01,0.039,0.02,0.06,0.03c0.02,0.009,0.04,0.018,0.061,0.027
				c0.01,0.004,0.019,0.007,0.029,0.011c0.011,0.004,0.021,0.008,0.032,0.012c0.013,0.004,0.025,0.008,0.038,0.012
				c0.008,0.003,0.016,0.006,0.024,0.008c0.014,0.004,0.028,0.008,0.041,0.011c0.007,0.002,0.014,0.004,0.022,0.006
				c0.014,0.004,0.028,0.006,0.042,0.009c0.007,0.002,0.014,0.003,0.022,0.005c0.014,0.003,0.028,0.005,0.042,0.007
				c0.008,0.001,0.016,0.003,0.024,0.004c0.013,0.002,0.026,0.004,0.039,0.005c0.009,0.001,0.018,0.002,0.027,0.003
				c0.012,0.001,0.024,0.002,0.036,0.003c0.01,0.001,0.021,0.001,0.031,0.002c0.011,0.001,0.021,0.001,0.032,0.001
				c0.012,0,0.024,0.001,0.035,0c0.009,0,0.018,0,0.027-0.001c0.013,0,0.026-0.001,0.039-0.001c0.008-0.001,0.016-0.001,0.024-0.002
				c0.014-0.001,0.028-0.002,0.042-0.004c0.008-0.001,0.015-0.002,0.022-0.003c0.014-0.002,0.029-0.004,0.043-0.006
				c0.008-0.001,0.015-0.003,0.023-0.004c0.014-0.002,0.028-0.005,0.042-0.008c0.009-0.002,0.017-0.004,0.026-0.006
				c0.013-0.003,0.025-0.006,0.038-0.009c0.012-0.003,0.023-0.006,0.035-0.01c0.009-0.003,0.019-0.005,0.029-0.008
				c0.021-0.007,0.042-0.014,0.063-0.021l6.822-2.483C21.778,24.45,22.138,23.679,21.884,22.981z"/>
			<path fill="#29292A" d="M11.138,28.321c0.009-0.004,0.018-0.008,0.027-0.012c0.011-0.005,0.022-0.009,0.033-0.015
				c0.012-0.006,0.023-0.011,0.034-0.017c0.008-0.004,0.016-0.008,0.024-0.012c0.012-0.007,0.024-0.014,0.037-0.021
				c0.007-0.004,0.013-0.008,0.02-0.012c0.012-0.008,0.024-0.015,0.036-0.023c0.006-0.004,0.013-0.008,0.019-0.012
				c0.011-0.008,0.023-0.016,0.034-0.024c0.006-0.005,0.013-0.009,0.02-0.014c0.01-0.008,0.021-0.016,0.031-0.024
				c0.007-0.006,0.014-0.011,0.021-0.017c0.009-0.007,0.018-0.015,0.027-0.023c0.008-0.007,0.016-0.014,0.024-0.021
				c0.008-0.007,0.015-0.014,0.022-0.021c0.009-0.008,0.017-0.017,0.026-0.025c0.006-0.006,0.012-0.013,0.018-0.019
				c0.009-0.01,0.018-0.019,0.027-0.029c0.005-0.006,0.01-0.012,0.016-0.018c0.009-0.011,0.018-0.021,0.027-0.032
				c0.005-0.006,0.009-0.011,0.014-0.017c0.009-0.011,0.018-0.023,0.027-0.035c0.004-0.006,0.008-0.012,0.013-0.018
				c0.008-0.012,0.017-0.024,0.024-0.036c0.005-0.007,0.009-0.014,0.014-0.022c0.007-0.011,0.014-0.022,0.021-0.034
				c0.006-0.01,0.011-0.02,0.017-0.03c0.005-0.009,0.01-0.018,0.015-0.028c0.021-0.039,0.04-0.079,0.056-0.121
				c0.004-0.01,0.007-0.02,0.011-0.029c0.004-0.011,0.008-0.021,0.012-0.032c0.004-0.013,0.008-0.025,0.012-0.038
				c0.003-0.008,0.005-0.016,0.008-0.024c0.004-0.014,0.008-0.028,0.011-0.042c0.002-0.007,0.004-0.014,0.006-0.021
				c0.003-0.014,0.006-0.028,0.009-0.043c0.002-0.007,0.003-0.014,0.005-0.021c0.003-0.014,0.005-0.028,0.007-0.042
				c0.001-0.008,0.003-0.016,0.004-0.023c0.002-0.013,0.003-0.026,0.005-0.039c0.001-0.009,0.002-0.018,0.003-0.027
				c0.001-0.012,0.002-0.024,0.003-0.036c0.001-0.01,0.001-0.021,0.002-0.031c0.001-0.011,0.001-0.021,0.001-0.032
				c0-0.012,0.001-0.023,0.001-0.035c0-0.009-0.001-0.018-0.001-0.028c0-0.013-0.001-0.026-0.001-0.039
				c-0.001-0.008-0.001-0.016-0.002-0.024c-0.001-0.014-0.002-0.028-0.004-0.042c-0.001-0.008-0.002-0.015-0.003-0.022
				c-0.002-0.014-0.004-0.029-0.006-0.043c-0.001-0.008-0.003-0.015-0.004-0.023c-0.002-0.014-0.005-0.028-0.008-0.041
				c-0.002-0.009-0.004-0.017-0.006-0.026c-0.003-0.013-0.006-0.025-0.009-0.038c-0.003-0.012-0.006-0.023-0.01-0.035
				c-0.003-0.009-0.005-0.019-0.008-0.029c-0.007-0.021-0.014-0.042-0.021-0.063l-2.483-6.822c-0.254-0.698-1.025-1.058-1.723-0.804
				c-0.698,0.254-1.057,1.025-0.803,1.723l1.373,3.773l-6.129-2.858c-0.673-0.314-1.473-0.023-1.787,0.65
				c-0.314,0.673-0.023,1.473,0.65,1.787l6.129,2.858l-3.773,1.373c-0.698,0.254-1.058,1.025-0.804,1.723
				c0.127,0.349,0.383,0.613,0.695,0.759c0.312,0.145,0.679,0.172,1.028,0.045l6.822-2.483
				C11.096,28.338,11.117,28.33,11.138,28.321z"/>
			<path fill="#29292A" d="M24.594,32.117l-6.129-2.858l3.773-1.373c0.698-0.254,1.058-1.025,0.803-1.723
				c-0.254-0.698-1.025-1.057-1.723-0.803l-6.822,2.483c-0.021,0.008-0.042,0.016-0.062,0.024c-0.009,0.004-0.018,0.008-0.027,0.012
				c-0.011,0.005-0.022,0.01-0.033,0.015c-0.012,0.006-0.023,0.012-0.034,0.017c-0.008,0.004-0.016,0.008-0.024,0.012
				c-0.012,0.007-0.025,0.014-0.037,0.021c-0.006,0.004-0.013,0.008-0.02,0.011c-0.012,0.008-0.024,0.015-0.036,0.023
				c-0.006,0.004-0.013,0.008-0.019,0.012c-0.012,0.008-0.023,0.016-0.034,0.024c-0.006,0.005-0.013,0.009-0.02,0.014
				c-0.01,0.008-0.021,0.016-0.031,0.024c-0.007,0.006-0.014,0.011-0.021,0.017c-0.009,0.008-0.018,0.015-0.027,0.023
				c-0.008,0.007-0.016,0.014-0.024,0.021c-0.008,0.007-0.015,0.014-0.023,0.021c-0.009,0.008-0.017,0.017-0.026,0.025
				c-0.006,0.006-0.013,0.013-0.018,0.02c-0.009,0.009-0.018,0.019-0.027,0.029c-0.005,0.006-0.01,0.012-0.016,0.018
				c-0.009,0.011-0.018,0.021-0.027,0.033c-0.005,0.006-0.009,0.011-0.013,0.017c-0.009,0.012-0.018,0.023-0.027,0.035
				c-0.004,0.006-0.008,0.012-0.013,0.018c-0.008,0.012-0.017,0.023-0.024,0.035c-0.005,0.007-0.009,0.014-0.014,0.022
				c-0.007,0.011-0.014,0.022-0.021,0.034c-0.006,0.01-0.011,0.02-0.017,0.03c-0.005,0.009-0.011,0.018-0.016,0.028
				c-0.021,0.039-0.039,0.079-0.056,0.121c-0.004,0.01-0.008,0.02-0.011,0.029c-0.004,0.011-0.008,0.021-0.012,0.032
				c-0.004,0.013-0.008,0.025-0.012,0.038c-0.002,0.008-0.005,0.016-0.008,0.024c-0.004,0.014-0.008,0.028-0.011,0.042
				c-0.002,0.007-0.004,0.014-0.006,0.021c-0.004,0.014-0.007,0.029-0.01,0.043c-0.001,0.007-0.003,0.014-0.004,0.021
				c-0.003,0.014-0.005,0.028-0.007,0.042c-0.001,0.008-0.003,0.016-0.004,0.023c-0.002,0.013-0.004,0.026-0.005,0.04
				c-0.001,0.009-0.002,0.018-0.003,0.027c-0.001,0.012-0.002,0.024-0.003,0.036c-0.001,0.01-0.002,0.021-0.002,0.031
				c0,0.011-0.001,0.021-0.001,0.032c0,0.012-0.001,0.023,0,0.035c0,0.009,0,0.018,0.001,0.028c0,0.013,0.001,0.026,0.001,0.039
				c0,0.008,0.001,0.016,0.002,0.024c0.001,0.014,0.002,0.028,0.004,0.042c0.001,0.008,0.002,0.015,0.003,0.022
				c0.002,0.014,0.004,0.028,0.006,0.043c0.001,0.008,0.003,0.015,0.004,0.023c0.002,0.014,0.005,0.028,0.008,0.041
				c0.002,0.009,0.004,0.017,0.006,0.026c0.003,0.013,0.006,0.025,0.009,0.038c0.003,0.012,0.006,0.023,0.01,0.035
				c0.003,0.009,0.005,0.019,0.008,0.028c0.007,0.021,0.014,0.043,0.021,0.064l2.483,6.822c0.127,0.349,0.383,0.613,0.695,0.759
				c0.312,0.145,0.679,0.172,1.028,0.045c0.698-0.254,1.058-1.025,0.804-1.723l-1.373-3.773l6.129,2.858
				c0.673,0.314,1.473,0.023,1.787-0.65C25.558,33.231,25.267,32.431,24.594,32.117z"/>
			<circle fill="#FFFFFF" cx="12.786" cy="28.094" r="3.555"/>
			<circle fill="#29292A" cx="12.786" cy="28.094" r="2.068"/>
		</g>
		<g>
			<path fill="none" d="M33.512,25.086c-0.303,0.115-0.647,0.172-1.032,0.172c-1.262,0-1.893-0.61-1.893-1.831
				c0-1.155,0.631-1.733,1.893-1.733c0.385,0,0.729,0.057,1.032,0.172v0.59c-0.303-0.131-0.631-0.197-0.983-0.197
				c-0.844,0-1.266,0.389-1.266,1.168c0,0.844,0.422,1.266,1.266,1.266c0.352,0,0.68-0.066,0.983-0.197V25.086z"/>
			<path fill="none" d="M33.688,22.652h0.691l0.651,1.858l0.637-1.858h0.678l-1.072,2.657c-0.19,0.469-0.494,0.802-0.912,1
				l-0.315-0.445c0.288-0.126,0.498-0.332,0.629-0.617L33.688,22.652z"/>
			<path fill="none" d="M36.616,22.758c0.342-0.07,0.705-0.106,1.086-0.106c0.877,0,1.315,0.409,1.315,1.226
				c0,0.903-0.408,1.354-1.224,1.354c-0.174,0-0.349-0.041-0.526-0.123v1.057h-0.651V22.758z M37.268,24.56
				c0.162,0.088,0.337,0.133,0.524,0.133c0.388,0,0.583-0.273,0.583-0.818c0-0.464-0.215-0.696-0.644-0.696
				c-0.185,0-0.339,0.011-0.462,0.034V24.56z"/>
			<path fill="none" d="M39.437,25.233v-2.581h0.504l0.081,0.329c0.226-0.22,0.465-0.329,0.718-0.329v0.526
				c-0.243,0-0.46,0.101-0.651,0.302v1.753H39.437z"/>
			<path fill="none" d="M41.693,21.718v0.516h-0.651v-0.516H41.693z M41.693,22.652v2.581h-0.651v-2.581H41.693z"/>
			<path fill="none" d="M42.118,23.943c0-0.865,0.426-1.298,1.278-1.298c0.852,0,1.278,0.433,1.278,1.298
				c0,0.864-0.426,1.295-1.278,1.295C42.547,25.238,42.121,24.806,42.118,23.943z M43.396,24.742c0.418,0,0.627-0.27,0.627-0.809
				c0-0.526-0.209-0.789-0.627-0.789s-0.627,0.263-0.627,0.789C42.769,24.472,42.978,24.742,43.396,24.742z"/>
			<path fill="none" d="M45.068,22.235h0.482l0.098,0.418h0.649v0.516H45.72v1.187c0,0.241,0.104,0.361,0.312,0.361h0.265v0.516
				h-0.58c-0.433,0-0.649-0.232-0.649-0.696C45.068,24.538,45.068,22.235,45.068,22.235z"/>
			<path fill="none" d="M33.117,26.77v0.56h-1.76v0.885h1.676v0.583h-1.684v0.922h1.802v0.565H30.71V26.77L33.117,26.77
				L33.117,26.77z"/>
			<path fill="none" d="M33.653,30.285v-2.581h0.504l0.081,0.378c0.247-0.252,0.529-0.378,0.846-0.378
				c0.611,0,0.917,0.318,0.917,0.954v1.627h-0.651v-1.627c0-0.285-0.142-0.428-0.425-0.428c-0.211,0-0.418,0.084-0.619,0.253v1.802
				L33.653,30.285L33.653,30.285z"/>
			<path fill="none" d="M36.508,27.286h0.482l0.098,0.418h0.649v0.516h-0.578v1.187c0,0.241,0.104,0.361,0.312,0.361h0.265v0.516
				h-0.58c-0.433,0-0.649-0.232-0.649-0.696C36.508,29.589,36.508,27.286,36.508,27.286z"/>
			<path fill="none" d="M39.16,27.704c0.783,0,1.175,0.4,1.175,1.2c0,0.107-0.007,0.213-0.022,0.32h-1.713
				c0,0.364,0.267,0.546,0.801,0.546c0.261,0,0.521-0.025,0.782-0.074v0.516c-0.228,0.049-0.505,0.074-0.831,0.074
				c-0.936,0-1.403-0.44-1.403-1.32C37.948,28.124,38.352,27.704,39.16,27.704z M38.599,28.771H39.7v-0.02
				c0-0.357-0.18-0.536-0.541-0.536C38.816,28.215,38.629,28.401,38.599,28.771z"/>
			<path fill="none" d="M40.758,30.285v-2.581h0.504l0.081,0.329c0.226-0.22,0.465-0.329,0.718-0.329v0.526
				c-0.242,0-0.46,0.101-0.651,0.302v1.753L40.758,30.285L40.758,30.285z"/>
			<path fill="none" d="M42.363,27.81c0.342-0.07,0.705-0.106,1.086-0.106c0.877,0,1.315,0.409,1.315,1.226
				c0,0.903-0.408,1.354-1.224,1.354c-0.174,0-0.349-0.041-0.526-0.123v1.057h-0.651V27.81z M43.015,29.612
				c0.162,0.088,0.337,0.133,0.524,0.133c0.388,0,0.583-0.273,0.583-0.818c0-0.464-0.215-0.696-0.644-0.696
				c-0.185,0-0.339,0.011-0.462,0.034V29.612z"/>
			<path fill="none" d="M45.184,30.285v-2.581h0.504l0.081,0.329c0.226-0.22,0.465-0.329,0.718-0.329v0.526
				c-0.242,0-0.46,0.101-0.651,0.302v1.753L45.184,30.285L45.184,30.285z"/>
			<path fill="none" d="M47.44,26.77v0.516h-0.651V26.77C46.789,26.77,47.44,26.77,47.44,26.77z M47.44,27.704v2.581h-0.651v-2.581
				H47.44z"/>
			<path fill="none" d="M47.988,30.162v-0.541c0.287,0.115,0.618,0.172,0.993,0.172c0.28,0,0.42-0.09,0.42-0.27
				c0-0.172-0.094-0.258-0.283-0.258h-0.467c-0.524,0-0.787-0.258-0.787-0.774c0-0.541,0.383-0.811,1.148-0.811
				c0.324,0,0.63,0.049,0.917,0.147v0.541c-0.287-0.115-0.598-0.172-0.934-0.172c-0.352,0-0.528,0.09-0.528,0.27
				c0,0.172,0.102,0.258,0.307,0.258h0.418c0.573,0,0.86,0.258,0.86,0.774c0,0.541-0.365,0.811-1.096,0.811
				C48.597,30.31,48.274,30.26,47.988,30.162z"/>
			<path fill="none" d="M51.536,27.704c0.783,0,1.175,0.4,1.175,1.2c0,0.107-0.007,0.213-0.022,0.32h-1.713
				c0,0.364,0.267,0.546,0.801,0.546c0.261,0,0.521-0.025,0.782-0.074v0.516c-0.228,0.049-0.505,0.074-0.831,0.074
				c-0.936,0-1.403-0.44-1.403-1.32C50.324,28.124,50.728,27.704,51.536,27.704z M50.975,28.771h1.101v-0.02
				c0-0.357-0.18-0.536-0.541-0.536C51.192,28.215,51.005,28.401,50.975,28.771z"/>
			<path fill="none" d="M31.362,31.822v2.95h1.396v0.565H30.71v-3.515C30.71,31.822,31.362,31.822,31.362,31.822z"/>
			<path fill="none" d="M33.824,31.822v0.516h-0.651v-0.516H33.824z M33.824,32.756v2.581h-0.651v-2.581H33.824z"/>
			<path fill="none" d="M34.36,35.337v-2.581h0.504l0.081,0.378c0.247-0.252,0.529-0.378,0.846-0.378
				c0.611,0,0.917,0.318,0.917,0.954v1.627h-0.651V33.71c0-0.285-0.142-0.428-0.425-0.428c-0.211,0-0.418,0.084-0.619,0.253v1.802
				L34.36,35.337L34.36,35.337z"/>
			<path fill="none" d="M37.239,35.337v-3.515h0.651v1.136c0.267-0.134,0.548-0.202,0.843-0.202c0.659,0,0.988,0.248,0.988,0.745
				c0,0.36-0.229,0.642-0.688,0.846l0.801,0.991h-0.796l-0.674-0.922v-0.302c0.47-0.1,0.705-0.264,0.705-0.492
				c0-0.233-0.156-0.349-0.467-0.349c-0.218,0-0.456,0.069-0.713,0.206v1.858L37.239,35.337L37.239,35.337z"/>
		</g>
		<rect y="19.531" fill="none" width="56.69" height="18.403"/>
	</g>
</g>
<g id="Layer_2" display="none">
	<g display="inline">
		<path fill="#262929" d="M26.565,37.351c0.34,0,0.685,0.072,1.013,0.225c1.201,0.56,1.721,1.988,1.161,3.189
			c-0.337,0.722-0.987,1.198-1.714,1.341l2.259,6.208c0.254,0.698-0.106,1.469-0.804,1.723c-0.152,0.055-0.307,0.081-0.46,0.081
			c-0.198,0-0.392-0.044-0.568-0.126c-0.312-0.146-0.568-0.41-0.695-0.759l-1.373-3.773l-2.858,6.129
			c-0.228,0.489-0.713,0.777-1.219,0.777c-0.19,0-0.384-0.041-0.567-0.126c-0.673-0.314-0.964-1.114-0.65-1.787l2.858-6.129
			l-3.773,1.373c-0.152,0.055-0.307,0.082-0.46,0.082c-0.549,0-1.065-0.339-1.263-0.885c-0.254-0.698,0.106-1.469,0.803-1.723
			l6.208-2.26c-0.358-0.648-0.412-1.453-0.075-2.175C24.796,37.864,25.661,37.351,26.565,37.351 M26.565,36.679
			c-0.577,0-1.141,0.162-1.631,0.468c-0.504,0.314-0.903,0.766-1.155,1.307c-0.208,0.446-0.307,0.94-0.285,1.428
			c0.009,0.214,0.041,0.426,0.095,0.634l-5.563,2.025c-0.506,0.184-0.91,0.554-1.138,1.043c-0.228,0.488-0.252,1.036-0.067,1.542
			c0.289,0.794,1.05,1.327,1.895,1.327c0.235,0,0.467-0.041,0.69-0.122l2.248-0.818L19.48,50.17
			c-0.228,0.488-0.252,1.036-0.067,1.542c0.184,0.506,0.554,0.91,1.043,1.138c0.269,0.126,0.556,0.189,0.851,0.189
			c0.781,0,1.499-0.457,1.828-1.165l2.172-4.658l0.818,2.248c0.184,0.506,0.555,0.91,1.043,1.138
			c0.266,0.124,0.56,0.189,0.852,0.189c0.235,0,0.467-0.041,0.689-0.122c0.506-0.184,0.91-0.555,1.138-1.043
			c0.228-0.488,0.252-1.036,0.067-1.542l-2.025-5.564c0.193-0.092,0.377-0.205,0.546-0.335c0.388-0.298,0.703-0.691,0.911-1.137
			c0.347-0.744,0.383-1.578,0.103-2.349c-0.281-0.771-0.845-1.387-1.588-1.734C27.452,36.776,27.015,36.679,26.565,36.679
			L26.565,36.679z"/>
		<g>
			<path fill="#FFFFFF" d="M26.545,52.201c-1.82,0-3.584-0.392-5.243-1.166c-1.521-0.709-2.858-1.696-3.974-2.935
				c-1.078-1.195-1.905-2.572-2.458-4.093c-0.553-1.52-0.805-3.107-0.748-4.715c0.059-1.666,0.449-3.282,1.158-4.803
				c1.02-2.187,2.64-4.017,4.683-5.291c1.991-1.241,4.279-1.897,6.619-1.897c1.82,0,3.584,0.392,5.243,1.166
				c6.222,2.901,8.923,10.323,6.022,16.545c-1.02,2.188-2.64,4.017-4.683,5.291C31.173,51.545,28.884,52.201,26.545,52.201
				C26.545,52.201,26.545,52.201,26.545,52.201z"/>
			<path fill="#262929" d="M26.582,27.639c1.712,0,3.45,0.364,5.101,1.134c6.054,2.823,8.682,10.045,5.859,16.099
				c-2.053,4.403-6.432,6.994-10.997,6.994c-1.712,0-3.45-0.365-5.101-1.134c-6.054-2.823-8.682-10.045-5.859-16.099
				C17.638,30.229,22.017,27.639,26.582,27.639 M26.582,26.966c-2.402,0-4.752,0.674-6.796,1.948
				c-2.099,1.309-3.763,3.188-4.81,5.434c-0.728,1.562-1.128,3.221-1.189,4.933c-0.059,1.652,0.199,3.281,0.768,4.842
				c0.568,1.561,1.418,2.975,2.524,4.203c1.147,1.272,2.52,2.286,4.082,3.014c1.704,0.794,3.516,1.197,5.385,1.197
				c2.402,0,4.752-0.674,6.796-1.948c2.099-1.309,3.763-3.188,4.81-5.434c2.98-6.39,0.205-14.012-6.184-16.992
				C30.263,27.369,28.452,26.966,26.582,26.966L26.582,26.966z"/>
		</g>
		<path fill="#EFEEED" d="M29.284,48.315l-2.259-6.208c0.726-0.143,1.377-0.618,1.714-1.341c0.56-1.201,0.041-2.629-1.161-3.189
			c-1.201-0.56-2.629-0.041-3.189,1.161c-0.337,0.722-0.283,1.527,0.075,2.175l-6.208,2.26c-0.698,0.254-1.058,1.025-0.803,1.723
			c0.254,0.698,1.025,1.058,1.723,0.803l3.773-1.373l-2.858,6.129c-0.314,0.673-0.023,1.473,0.65,1.787
			c0.673,0.314,1.473,0.023,1.787-0.65l2.858-6.129l1.373,3.773c0.127,0.349,0.383,0.613,0.695,0.759
			c0.312,0.145,0.679,0.172,1.028,0.045C29.178,49.784,29.538,49.013,29.284,48.315z"/>
		<path fill="#2EAEB0" d="M31.286,29.623c-5.585-2.604-12.247-0.179-14.851,5.406c-2.604,5.585-0.179,12.247,5.406,14.851
			c5.585,2.604,12.247,0.18,14.851-5.405C39.296,38.89,36.871,32.228,31.286,29.623z"/>
		<path fill="#FFFFFF" d="M29.284,48.315l-2.259-6.208c0.726-0.143,1.377-0.618,1.714-1.341c0.56-1.201,0.041-2.629-1.161-3.189
			c-1.201-0.56-2.629-0.041-3.189,1.161c-0.337,0.722-0.283,1.527,0.075,2.175l-6.208,2.26c-0.698,0.254-1.058,1.025-0.803,1.723
			c0.254,0.698,1.025,1.058,1.723,0.803l3.773-1.373l-2.858,6.129c-0.314,0.673-0.023,1.473,0.65,1.787
			c0.673,0.314,1.473,0.023,1.787-0.65l2.858-6.129l1.373,3.773c0.127,0.349,0.383,0.613,0.695,0.759
			c0.312,0.145,0.679,0.172,1.028,0.045C29.178,49.784,29.538,49.013,29.284,48.315z"/>
		<path fill="#262929" d="M35.661,34.639c-0.254-0.698-1.025-1.058-1.723-0.804l-3.773,1.373l2.858-6.129
			c0.314-0.673,0.023-1.473-0.65-1.787c-0.673-0.314-1.473-0.023-1.787,0.65l-2.858,6.129L26.355,30.3
			c-0.254-0.698-1.025-1.058-1.723-0.804c-0.698,0.254-1.058,1.025-0.804,1.723l2.483,6.822c0.008,0.021,0.016,0.042,0.025,0.062
			c0.004,0.009,0.008,0.018,0.012,0.027c0.005,0.011,0.009,0.022,0.015,0.033c0.006,0.012,0.011,0.023,0.017,0.035
			c0.004,0.008,0.008,0.016,0.012,0.024c0.007,0.012,0.014,0.025,0.021,0.037c0.004,0.006,0.007,0.013,0.011,0.02
			c0.007,0.012,0.015,0.025,0.023,0.036c0.004,0.006,0.008,0.013,0.012,0.019c0.008,0.012,0.016,0.023,0.024,0.034
			c0.005,0.006,0.009,0.013,0.014,0.02c0.008,0.01,0.016,0.021,0.024,0.031c0.006,0.007,0.011,0.014,0.017,0.021
			c0.008,0.009,0.015,0.018,0.023,0.027c0.007,0.008,0.014,0.016,0.021,0.024c0.007,0.008,0.014,0.015,0.021,0.023
			c0.008,0.009,0.016,0.017,0.025,0.026c0.006,0.006,0.013,0.013,0.02,0.019c0.009,0.009,0.019,0.018,0.029,0.027
			c0.006,0.005,0.012,0.01,0.018,0.016c0.011,0.009,0.021,0.018,0.032,0.027c0.006,0.005,0.012,0.009,0.018,0.014
			c0.011,0.009,0.023,0.018,0.035,0.026c0.006,0.004,0.012,0.009,0.018,0.013c0.012,0.008,0.023,0.016,0.035,0.024
			c0.007,0.005,0.015,0.009,0.022,0.014c0.011,0.007,0.022,0.014,0.034,0.021c0.01,0.006,0.02,0.011,0.03,0.017
			c0.009,0.005,0.018,0.01,0.028,0.015c0.02,0.01,0.039,0.02,0.06,0.03c0.02,0.009,0.04,0.018,0.061,0.027
			c0.01,0.004,0.019,0.007,0.029,0.011c0.011,0.004,0.021,0.008,0.032,0.012c0.013,0.004,0.025,0.008,0.038,0.012
			c0.008,0.003,0.016,0.005,0.024,0.008c0.014,0.004,0.028,0.008,0.041,0.011c0.007,0.002,0.014,0.004,0.022,0.006
			c0.014,0.004,0.028,0.006,0.042,0.01c0.007,0.002,0.014,0.003,0.022,0.005c0.014,0.003,0.028,0.005,0.042,0.007
			c0.008,0.001,0.016,0.003,0.024,0.004c0.013,0.002,0.026,0.004,0.039,0.005c0.009,0.001,0.018,0.002,0.027,0.003
			c0.012,0.001,0.024,0.002,0.036,0.003c0.01,0.001,0.021,0.001,0.031,0.002c0.011,0.001,0.021,0.001,0.032,0.001
			c0.012,0,0.024,0.001,0.035,0c0.009,0,0.018,0,0.027-0.001c0.013,0,0.026-0.001,0.039-0.001c0.008-0.001,0.016-0.001,0.024-0.002
			c0.014-0.001,0.028-0.002,0.042-0.004c0.008-0.001,0.015-0.002,0.022-0.003c0.014-0.002,0.029-0.004,0.043-0.006
			c0.008-0.001,0.015-0.003,0.023-0.004c0.014-0.002,0.028-0.005,0.042-0.008c0.009-0.002,0.017-0.004,0.026-0.006
			c0.013-0.003,0.025-0.006,0.038-0.009c0.012-0.003,0.023-0.006,0.035-0.01c0.009-0.003,0.019-0.005,0.029-0.008
			c0.021-0.007,0.042-0.014,0.063-0.021l6.822-2.483C35.556,36.108,35.915,35.337,35.661,34.639z"/>
		<path fill="#262929" d="M24.916,39.979c0.009-0.004,0.018-0.008,0.027-0.012c0.011-0.005,0.022-0.009,0.033-0.015
			c0.012-0.006,0.023-0.011,0.034-0.017c0.008-0.004,0.016-0.008,0.024-0.012c0.012-0.007,0.024-0.014,0.037-0.021
			c0.007-0.004,0.013-0.008,0.02-0.012c0.012-0.008,0.024-0.015,0.036-0.023c0.006-0.004,0.013-0.008,0.019-0.012
			c0.011-0.008,0.023-0.016,0.034-0.024c0.006-0.005,0.013-0.009,0.02-0.014c0.01-0.008,0.021-0.016,0.031-0.024
			c0.007-0.006,0.014-0.011,0.021-0.017c0.009-0.007,0.018-0.015,0.027-0.023c0.008-0.007,0.016-0.014,0.024-0.021
			c0.008-0.007,0.015-0.014,0.022-0.021c0.009-0.008,0.017-0.017,0.026-0.025c0.006-0.006,0.012-0.013,0.018-0.019
			c0.009-0.01,0.018-0.019,0.027-0.029c0.005-0.006,0.01-0.012,0.016-0.018c0.009-0.011,0.018-0.021,0.027-0.032
			c0.005-0.006,0.009-0.011,0.014-0.017c0.009-0.011,0.018-0.023,0.027-0.035c0.004-0.006,0.008-0.012,0.013-0.018
			c0.008-0.012,0.017-0.024,0.024-0.036c0.005-0.007,0.009-0.014,0.014-0.022c0.007-0.011,0.014-0.022,0.021-0.034
			c0.006-0.01,0.011-0.02,0.017-0.03c0.005-0.009,0.01-0.018,0.015-0.028c0.021-0.039,0.04-0.079,0.056-0.121
			c0.004-0.01,0.007-0.02,0.011-0.029c0.004-0.011,0.008-0.021,0.012-0.032c0.004-0.013,0.008-0.025,0.012-0.038
			c0.003-0.008,0.005-0.016,0.008-0.024c0.004-0.014,0.008-0.028,0.011-0.042c0.002-0.007,0.004-0.014,0.006-0.021
			c0.003-0.014,0.006-0.028,0.009-0.043c0.002-0.007,0.003-0.014,0.005-0.021c0.003-0.014,0.005-0.028,0.007-0.042
			c0.001-0.008,0.003-0.016,0.004-0.023c0.002-0.013,0.003-0.026,0.005-0.039c0.001-0.009,0.002-0.018,0.003-0.027
			c0.001-0.012,0.002-0.024,0.003-0.036c0.001-0.01,0.001-0.021,0.002-0.031c0.001-0.011,0.001-0.021,0.001-0.032
			c0-0.012,0.001-0.023,0.001-0.035c0-0.009-0.001-0.018-0.001-0.028c0-0.013-0.001-0.026-0.001-0.039
			c-0.001-0.008-0.001-0.016-0.002-0.024c-0.001-0.014-0.002-0.028-0.004-0.042c-0.001-0.008-0.002-0.015-0.003-0.022
			c-0.002-0.014-0.004-0.029-0.006-0.043c-0.001-0.008-0.003-0.015-0.004-0.023c-0.002-0.014-0.005-0.028-0.008-0.041
			c-0.002-0.009-0.004-0.017-0.006-0.026c-0.003-0.013-0.006-0.025-0.009-0.038c-0.003-0.012-0.006-0.023-0.01-0.035
			c-0.003-0.009-0.005-0.019-0.008-0.029c-0.007-0.021-0.014-0.042-0.021-0.063l-2.483-6.822c-0.254-0.698-1.025-1.058-1.723-0.804
			c-0.698,0.254-1.057,1.025-0.803,1.723l1.373,3.773l-6.129-2.858c-0.673-0.314-1.473-0.023-1.787,0.65
			c-0.314,0.673-0.023,1.473,0.65,1.787l6.129,2.858l-3.773,1.373c-0.698,0.254-1.058,1.025-0.804,1.723
			c0.127,0.349,0.383,0.613,0.695,0.759c0.312,0.145,0.679,0.172,1.028,0.045l6.822-2.483
			C24.874,39.996,24.895,39.988,24.916,39.979z"/>
		<path fill="#262929" d="M38.372,43.775l-6.129-2.858l3.773-1.373c0.698-0.254,1.058-1.025,0.803-1.723
			c-0.254-0.698-1.025-1.057-1.723-0.803L28.274,39.5c-0.021,0.008-0.042,0.016-0.062,0.024c-0.009,0.004-0.018,0.008-0.027,0.012
			c-0.011,0.005-0.022,0.01-0.033,0.015c-0.012,0.006-0.023,0.012-0.034,0.017c-0.008,0.004-0.016,0.008-0.024,0.012
			c-0.012,0.007-0.025,0.014-0.037,0.021c-0.006,0.004-0.013,0.008-0.02,0.011c-0.012,0.008-0.024,0.015-0.036,0.023
			c-0.006,0.004-0.013,0.008-0.019,0.012c-0.012,0.008-0.023,0.016-0.034,0.024c-0.006,0.005-0.013,0.009-0.02,0.014
			c-0.01,0.008-0.021,0.016-0.031,0.024c-0.007,0.006-0.014,0.011-0.021,0.017c-0.009,0.008-0.018,0.015-0.027,0.023
			c-0.008,0.007-0.016,0.014-0.024,0.021c-0.008,0.007-0.015,0.014-0.023,0.021c-0.009,0.008-0.017,0.017-0.026,0.025
			c-0.006,0.006-0.013,0.013-0.018,0.02c-0.009,0.009-0.018,0.019-0.027,0.029c-0.005,0.006-0.01,0.012-0.016,0.018
			c-0.009,0.011-0.018,0.021-0.027,0.033c-0.005,0.006-0.009,0.011-0.013,0.017c-0.009,0.012-0.018,0.023-0.027,0.035
			c-0.004,0.006-0.008,0.012-0.013,0.018c-0.008,0.012-0.017,0.023-0.025,0.035c-0.005,0.007-0.009,0.014-0.014,0.022
			c-0.007,0.011-0.014,0.022-0.021,0.034c-0.006,0.01-0.011,0.02-0.017,0.03c-0.005,0.009-0.011,0.018-0.016,0.028
			c-0.021,0.039-0.039,0.079-0.056,0.121c-0.004,0.01-0.008,0.02-0.011,0.029c-0.004,0.011-0.008,0.021-0.012,0.032
			c-0.004,0.013-0.008,0.025-0.012,0.038c-0.002,0.008-0.005,0.016-0.008,0.024c-0.004,0.014-0.008,0.028-0.011,0.042
			c-0.002,0.007-0.004,0.014-0.006,0.021c-0.004,0.014-0.007,0.029-0.01,0.043c-0.001,0.007-0.003,0.014-0.004,0.021
			c-0.003,0.014-0.005,0.028-0.007,0.042c-0.001,0.008-0.003,0.016-0.004,0.023c-0.002,0.013-0.004,0.026-0.005,0.04
			c-0.001,0.009-0.002,0.018-0.003,0.027c-0.001,0.012-0.002,0.024-0.003,0.036c-0.001,0.01-0.002,0.021-0.002,0.031
			c0,0.011-0.001,0.021-0.001,0.032c0,0.012-0.001,0.023,0,0.035c0,0.009,0,0.018,0.001,0.028c0,0.013,0.001,0.026,0.001,0.039
			c0,0.008,0.001,0.016,0.002,0.024c0.001,0.014,0.002,0.028,0.004,0.042c0.001,0.008,0.002,0.015,0.003,0.022
			c0.002,0.014,0.004,0.028,0.006,0.043c0.001,0.008,0.003,0.015,0.004,0.023c0.002,0.014,0.005,0.028,0.008,0.041
			c0.002,0.009,0.004,0.017,0.006,0.026c0.003,0.013,0.006,0.025,0.009,0.038c0.003,0.012,0.006,0.023,0.01,0.035
			c0.003,0.009,0.005,0.019,0.008,0.028c0.007,0.021,0.014,0.043,0.021,0.064l2.483,6.822c0.127,0.349,0.383,0.613,0.695,0.759
			c0.312,0.145,0.679,0.172,1.028,0.045c0.698-0.254,1.058-1.025,0.804-1.723l-1.373-3.773l6.129,2.858
			c0.673,0.314,1.473,0.023,1.787-0.65C39.336,44.889,39.045,44.089,38.372,43.775z"/>
		<circle fill="#FFFFFF" cx="26.564" cy="39.752" r="3.555"/>
		<circle fill="#262929" cx="26.564" cy="39.752" r="2.068"/>
	</g>
</g>
</svg>
